<?xml version="1.0" encoding="utf-8"?>
<!-- Generator: Adobe Illustrator 23.0.1, SVG Export Plug-In . SVG Version: 6.00 Build 0)  -->
<svg version="1.1" id="Layer_1" xmlns="http://www.w3.org/2000/svg" xmlns:xlink="http://www.w3.org/1999/xlink" x="0px" y="0px"
	 viewBox="0 0 100 100" style="enable-background:new 0 0 100 100;" xml:space="preserve">
<style type="text/css">
	.st0{fill:#D0775A;}
</style>
<path class="st0" d="M100.1,51.1C100.1,51.1,100.1,51,100.1,51.1c0-0.1,0-0.1,0-0.1c0-1.5,0-3-0.1-4.7c0-4.4,0.1-8.9-0.4-11.7
	c0-0.1,0.1-0.2,0-0.3c-0.3-1.1-0.3-1.7-0.3-2.5c0-0.5,0-1.2-0.1-2c0.1-0.1,0.2-0.2,0.1-0.4c0-0.1,0-0.2-0.1-0.3
	c-0.3-1.3,0.4-3.3,0.4-5.1c0-1,0-2,0-2.7c0.2-0.1,0.3-0.3,0.3-0.5l-0.1-4.4c0-0.2-0.1-0.3-0.2-0.4v-0.1c0.5-1.1,0.7-2.7,0.4-4.4
	c0-1.3-0.3-2.6-0.7-4L99.1,7c0,0,0,0,0-0.1L99,6.3V5.9C99,5,99,3.4,99.2,3c0.1-0.1,0.1-0.2,0.1-0.3V0.8c0-0.1-0.1-0.3-0.2-0.4
	c-0.1-0.1-0.3-0.2-0.5-0.1c-0.1,0-0.3,0-0.4,0c0,0,0-0.1-0.1-0.1C98,0.1,97.8,0,97.6,0.1c-2.2,0-4.3,0.1-6.5,0.1c-0.2,0-0.4,0-0.5,0
	l-4.1,0.2c-1.2,0.1-2.4,0.1-3.6,0.2c-0.1-0.2-0.3-0.4-0.6-0.4c-0.1-0.1-0.2-0.1-0.4-0.2c-0.7,0.1-1.4,0-2.1,0c-0.1,0-0.1,0-0.2,0
	c0,0,0,0,0,0c-0.2,0-0.4,0-0.7,0c0,0,0,0,0,0c0,0,0,0-0.1,0c-1.4,0-2.8,0.1-4.3,0.2c-1.5,0.1-3,0.2-4.6,0.2c-1.1,0-2,0-2.9-0.1
	c0,0-0.1,0-0.1,0c-0.1,0-0.1,0-0.2,0c0,0-0.1,0-0.1,0l-0.9,0.2c-0.3-0.1-0.9-0.2-1.4-0.2c0,0,0,0,0,0c0,0-0.1,0-0.1,0
	c-0.3,0-0.6,0.1-0.7,0.3c-0.4-0.3-0.9-0.5-2.5-0.5h-0.1C60.4,0,59.8,0,59.1,0c0,0,0,0-0.1,0c0,0,0,0,0,0c-1.5,0-3.2,0.1-4.9,0.2
	c-0.8,0.1-1.5,0.1-2.2,0.1c-0.1,0-0.2,0-0.3,0.1c-0.6,0-1.2,0-1.8,0.1c0-0.1-0.1-0.2-0.2-0.2c-0.1-0.1-0.1-0.1-0.2-0.1
	c-0.2-0.1-0.5-0.1-0.7,0c-0.1,0-0.2,0.1-0.2,0.2c-0.1,0-0.3,0-0.5,0.1c-0.1-0.1-0.3-0.2-0.6-0.2l-8,0.1h-0.1
	c-0.7,0.1-1.3,0.1-1.6,0.4c-0.9,0-1.8,0.1-2.4,0.2c-0.2,0-0.5-0.1-0.9-0.1c0-0.1,0-0.1,0-0.2c-0.1-0.1-0.1-0.2-0.2-0.3
	c-0.1-0.1-0.2-0.2-0.4-0.2C32.9,0.1,32,0,30.9,0c-1.3,0-2.6,0.1-3.8,0.2c-1.4,0.1-2.8,0.2-4.4,0.2c-0.2,0-0.5,0.1-0.6,0.3
	c0,0-0.1-0.1-0.1-0.1c-0.1-0.1-0.3-0.2-0.5-0.2l-5.3-0.1c-0.2,0-0.4,0.1-0.6,0.2c-0.3,0-0.5-0.1-0.8-0.1c-0.8-0.1-1.5-0.2-2.4-0.2
	c-0.7,0-1.4,0.1-2.2,0.2c-0.3,0-0.6,0.2-0.7,0.4L1.7,0.5C1.3,0.5,1,0.7,1,1C0.9,2.8,0.8,4.6,0.7,6.4L0.6,8.2c0,0.5-0.1,1-0.1,1.5
	c0,0.2,0.1,0.3,0.3,0.4c0,0,0.1,0.1,0.1,0.1c0,0.2,0,0.4,0.1,0.6c0,0,0,0,0,0.1c-0.2,0.1-0.4,0.3-0.4,0.5c0.3,1.7,0.1,2-0.1,2.2
	c-0.3,0.4-0.5,0.8-0.4,2C0.1,15.8,0,16,0,16.1c0,0.1,0,0.2,0.1,0.2c0,0.1,0.1,0.2,0.2,0.3l0.2,0.3L0.6,17C0.3,21.9,0.3,25,0.9,28.5
	c-0.5,0.6-0.4,1.8-0.3,3.6c0,0.7,0.1,1.4,0,1.8c-0.1,0.1-0.2,0.3-0.1,0.4c0.3,1.6,0.2,3.4,0,5.1c0,0.4-0.1,0.7-0.1,1.1
	c-0.2,0.1-0.2,0.3-0.2,0.5c0,0.1,0.1,0.3,0.1,0.4c0,0.6,0,1.2,0,1.7c-0.1,0.1-0.2,0.2-0.2,0.4v0.3c0.1,1.5,0.2,4.2,0,4.8
	C0.1,48.8,0,49,0,49.1c0,0,0,0.1,0,0.1c0,0,0,0,0,0c0,1.5,0,3,0.1,4.7c0,4.4-0.1,8.9,0.4,11.7c0,0.1-0.1,0.2,0,0.3
	c0.3,1.1,0.3,1.7,0.3,2.5c0,0.5,0,1.2,0.1,2c-0.1,0.1-0.2,0.2-0.1,0.4c0,0.1,0,0.2,0.1,0.3c0.3,1.3-0.4,3.3-0.4,5.1c0,1,0,2,0,2.7
	c-0.2,0.1-0.3,0.3-0.3,0.5l0.1,4.4c0,0.2,0.1,0.3,0.2,0.4v0.1C0,85.4-0.2,87,0.1,88.7c0,1.3,0.3,2.6,0.7,4L1,93.2c0,0,0,0,0,0.1
	l0.1,0.6v0.4c0,0.9,0,2.5-0.2,2.9c-0.1,0.1-0.1,0.2-0.1,0.3v1.9c0,0.1,0.1,0.3,0.2,0.4c0.1,0.1,0.3,0.2,0.5,0.1c0.1,0,0.3,0,0.4,0
	c0,0,0,0.1,0.1,0.1c0.1,0.1,0.3,0.2,0.5,0.1c2.2,0,4.3-0.1,6.5-0.1c0.2,0,0.4,0,0.5,0l4.1-0.2c1.2-0.1,2.4-0.1,3.6-0.2
	c0.1,0.2,0.3,0.4,0.6,0.4c0.1,0.1,0.2,0.1,0.4,0.2c0.7-0.1,1.4,0,2.1,0c0.1,0,0.1,0,0.2,0c0,0,0,0,0,0c0.2,0,0.4,0,0.7,0
	c0,0,0,0,0,0c0,0,0,0,0.1,0c1.4,0,2.8-0.1,4.3-0.2c1.5-0.1,3-0.2,4.6-0.2c1.1,0,2,0,2.9,0.1c0,0,0.1,0,0.1,0c0.1,0,0.1,0,0.2,0
	c0,0,0.1,0,0.1,0l0.9-0.2c0.3,0.1,0.9,0.2,1.4,0.2c0,0,0,0,0,0c0,0,0.1,0,0.1,0c0.3,0,0.6-0.1,0.7-0.3c0.4,0.3,0.9,0.5,2.5,0.5h0.1
	c0.5,0.1,1.1,0.1,1.8,0.1c0,0,0,0,0.1,0c0,0,0,0,0,0c1.5,0,3.2-0.1,4.9-0.2c0.8-0.1,1.5-0.1,2.2-0.1c0.1,0,0.2,0,0.3-0.1
	c0.6,0,1.2,0,1.8-0.1c0,0.1,0.1,0.2,0.2,0.2c0.1,0.1,0.1,0.1,0.2,0.1c0.2,0.1,0.5,0.1,0.7,0c0.1,0,0.2-0.1,0.2-0.2
	c0.1,0,0.3,0,0.5-0.1c0.1,0.1,0.3,0.2,0.6,0.2l8-0.1h0.1c0.7-0.1,1.3-0.1,1.6-0.4c0.9,0,1.8-0.1,2.4-0.2c0.2,0,0.5,0.1,0.9,0.1
	c0,0.1,0,0.1,0,0.2c0.1,0.1,0.1,0.2,0.2,0.3c0.1,0.1,0.2,0.2,0.4,0.2c0.9,0.1,1.8,0.2,2.9,0.2c1.3,0,2.6-0.1,3.8-0.2
	c1.4-0.1,2.8-0.2,4.4-0.2c0.2,0,0.5-0.1,0.6-0.3c0,0,0.1,0.1,0.1,0.1c0.1,0.1,0.3,0.2,0.5,0.2l5.3,0.1c0.2,0,0.4-0.1,0.6-0.2
	c0.3,0,0.5,0.1,0.8,0.1c0.8,0.1,1.5,0.2,2.4,0.2c0.7,0,1.4-0.1,2.2-0.2c0.3,0,0.6-0.2,0.7-0.4l7.8,0.3c0.4,0,0.7-0.2,0.7-0.5
	c0.1-1.8,0.2-3.6,0.3-5.4l0.1-1.8c0-0.5,0.1-1,0.1-1.5c0-0.2-0.1-0.3-0.3-0.4c0,0-0.1-0.1-0.1-0.1c0-0.2,0-0.4-0.1-0.6
	c0,0,0,0,0-0.1c0.2-0.1,0.4-0.3,0.4-0.5c-0.3-1.7-0.1-2,0.1-2.2c0.3-0.4,0.5-0.8,0.4-2c0-0.1,0.1-0.3,0.1-0.4c0-0.1,0-0.2-0.1-0.2
	c0-0.1-0.1-0.2-0.2-0.3l-0.2-0.3l-0.1-0.1c0.3-4.9,0.3-8.1-0.3-11.5c0.5-0.6,0.4-1.8,0.3-3.6c0-0.7-0.1-1.4,0-1.8
	c0.1-0.1,0.2-0.3,0.1-0.4c-0.3-1.6-0.2-3.4,0-5.1c0-0.4,0.1-0.7,0.1-1.1c0.2-0.1,0.2-0.3,0.2-0.5c0-0.1-0.1-0.3-0.1-0.4
	c0-0.6,0-1.2,0-1.7c0.1-0.1,0.2-0.2,0.2-0.4v-0.3c-0.1-1.5-0.2-4.2,0-4.8C100,51.4,100.1,51.2,100.1,51.1z"/>
</svg>
