<?xml version="1.0" encoding="utf-8"?>
<!-- Generator: Adobe Illustrator 23.0.1, SVG Export Plug-In . SVG Version: 6.00 Build 0)  -->
<svg version="1.1" id="Layer_1" xmlns="http://www.w3.org/2000/svg" xmlns:xlink="http://www.w3.org/1999/xlink" x="0px" y="0px"
	 viewBox="0 0 500 125.72" style="enable-background:new 0 0 500 125.72;" xml:space="preserve">
<path d="M499.99,40.61c-0.04-3.67-0.17-7.03-0.4-10.28c-0.12-1.67-0.27-3.35-0.44-4.99l-0.03-0.31l-0.01-0.14l0-0.04l-0.07-0.95
	c0-0.01,0-0.02,0-0.03l-0.08-1.07l-0.06-0.78c-0.07-0.87-0.15-1.72-0.22-2.55c0.38-1.17,0.63-2.61,0.79-4.46
	c0.16-1.87,0.24-4.23,0.24-7.2c0-2.62-2.13-4.74-4.74-4.74c0,0-0.01,0-0.01,0C492,3.1,488.8,3.19,485.7,3.27
	c-1.04,0.03-2.07,0.05-3.06,0.08l-0.72,0.01l-2.07,0.04l-0.68,0.01l-0.6,0.01l-1.16,0c-0.13,0-0.26,0-0.37-0.01
	c-0.56-0.23-1.16-0.35-1.78-0.35c-0.24,0-0.48,0.02-0.72,0.05c-2.14,0.33-4.5,0.49-7.2,0.49c-3.16,0-6.47-0.22-9.67-0.43
	c-3.3-0.22-6.71-0.44-10.08-0.44c-0.38,0-0.75,0-1.12,0.01c-0.57-0.25-1.19-0.4-1.85-0.41c-0.02,0-0.05,0-0.07,0
	c-0.01,0-0.02,0-0.04,0c-0.02,0-0.03,0-0.05,0c-0.14,0-0.29,0.01-0.43,0.01c-0.07,0-0.14-0.01-0.2-0.01c-0.02,0-0.05,0-0.07,0
	c-0.01,0-0.02,0-0.04,0c-0.02,0-0.03,0-0.05,0c-0.2,0-0.41,0.01-0.63,0.02l-1.21,0.04c-3.49,0.13-7.44,0.27-10.63,0.27
	c-2.75,0-4.09-0.11-4.69-0.19c-0.72-0.44-1.57-0.68-2.45-0.68c-0.03,0-0.06,0-0.09,0c-5.03,0.09-10.5,0.12-16.29,0.14
	C392.56,2,376.98,2.07,367.19,3.34c-0.26-0.05-0.53-0.07-0.81-0.07c-0.31,0-0.63,0.03-0.95,0.1c-2.64,0.54-4.41,0.65-6.25,0.65
	c-0.62,0-1.25-0.01-1.91-0.03c-0.76-0.01-1.54-0.03-2.41-0.03c-1.12,0-2.2,0.03-3.29,0.09c-0.32-0.11-0.65-0.19-0.99-0.24
	c-0.19-0.02-0.38-0.04-0.58-0.04c-0.06,0-0.12,0-0.18,0c-0.08,0-0.16,0.01-0.24,0.01c-0.01,0-0.03,0-0.04,0
	c-0.11-0.01-0.22-0.02-0.34-0.02c-0.06,0-0.12,0-0.18,0c-0.08,0-0.16,0.01-0.24,0.01c-0.39,0.03-0.87,0.07-1.4,0.21
	c-3.16,0.54-7.84,0.61-11.13,0.61c-1.9,0-3.82-0.02-5.69-0.05c-1.77-0.02-3.45-0.04-5.02-0.04c-1.34,0-2.48,0.02-3.46,0.05
	c-0.75-0.48-1.63-0.74-2.55-0.74c-0.02,0-0.04,0-0.06,0l-15.26,0.21c-0.74,0.01-1.45,0.19-2.07,0.51c-2.59-0.31-5.7-0.65-9.11-0.65
	c-2.08,0-4.02,0.12-5.93,0.37c-0.2,0-0.4-0.01-0.6-0.01c-5,0-9.88,1.07-14.61,2.1c-4.55,0.99-8.85,1.93-13.06,1.93
	c0,0-0.01,0-0.01,0c-0.45-0.85-1.24-1.73-2.6-2.42c-0.67-0.34-1.41-0.52-2.16-0.52c-0.13,0-0.25,0.01-0.38,0.02
	c-0.89,0.07-1.76,0.1-2.67,0.1c-2.02,0-3.95-0.17-6-0.35c-2.37-0.21-4.81-0.43-7.73-0.43c-0.86,0-1.72,0.02-2.58,0.06
	c-0.77-0.52-1.7-0.82-2.66-0.82c-0.23,0-0.46,0.02-0.7,0.05c-2.41,0.36-4.97,0.53-7.83,0.53c-2.99,0-5.9-0.19-8.71-0.37
	c-2.66-0.17-5.17-0.33-7.63-0.33c-2.59,0-4.73,0.18-6.69,0.57c-0.97,0.06-1.87,0.09-2.68,0.09c-2.84,0-4.08-0.34-5.51-0.74
	c-1.56-0.43-3.33-0.93-6.34-0.93c-1.67,0-3.62,0.15-5.96,0.47l-4.13-1.09c-0.33-0.09-0.68-0.14-1.02-0.15
	C174.51,2,174.16,2,173.82,2c-2.55,0-3.95,0.4-5.28,0.85c-0.64,0.21-0.88,0.29-1.71,0.29c-0.2,0-0.42-0.01-0.66-0.02
	c-0.92-0.38-1.97-0.56-3.06-0.69c-0.66-0.48-1.46-0.79-2.33-0.87c-2.51-0.24-5.19-0.35-8.18-0.35c-3.83,0-7.64,0.18-11.67,0.38
	c-4.18,0.2-8.5,0.41-13.01,0.41c-4.92,0-9.43-0.25-13.77-0.78c-0.19-0.02-0.38-0.03-0.57-0.03c-0.61,0-1.22,0.12-1.79,0.35
	c-1.36,0.55-4.94,0.68-7.55,0.77c-2.67,0.09-5.07,0.18-7.02,0.61c-0.13-0.02-0.26-0.03-0.39-0.04c-0.7-1.13-1.86-1.94-3.22-2.18
	C90.94,0.22,88.23,0,85.31,0c-3.65,0-7.13,0.35-10.49,0.69c-3.39,0.34-6.59,0.67-9.99,0.67c-0.46,0-0.92-0.01-1.36-0.02
	c-0.04,0-0.09,0-0.13,0c-0.54,0-1.05,0.09-1.54,0.26c-0.47-0.18-0.98-0.28-1.51-0.3L45.92,0.82c-0.05,0-0.11,0-0.16,0
	c-0.74,0-1.45,0.17-2.09,0.48c-0.31-0.05-0.62-0.1-0.92-0.15c-2.07-0.34-4.2-0.69-6.81-0.69c-2,0-4.12,0.21-6.49,0.63
	c-0.06,0.01-0.12,0.02-0.19,0.04c-1.26,0.28-2.17,0.76-2.83,1.32c-0.2-0.01-0.44-0.02-0.76-0.04l-0.35-0.02l-1.47-0.06l-3.02-0.13
	L12.4,1.9L7.38,1.71c-0.06,0-0.12,0-0.18,0c-2.54,0-4.64,2.01-4.74,4.56c-0.24,6.24-0.45,12.5-0.62,18.61l-0.12,2.68L1.6,30.34
	c0,0.01,0,0.01,0,0.02C1.52,32.21,1.47,34,1.42,35.68c-0.03,1.22,0.4,2.37,1.17,3.25c-0.63,0.91-0.93,2.04-0.81,3.2
	c0.34,3.14,0.32,4.64,0.25,5.35C2,47.84,2,47.84,1.81,48.22c-0.94,1.88-1.43,3.68-1.33,7.5c-0.69,1.41-0.67,3.13,0.22,4.57
	l0.69,1.11c0,0,0,0,0,0.01l0.88,1.42c0.58,3.7,0.32,4.7,0.04,5.84c-0.67,2.67-1.03,5.11,0.47,12.27c0.13,0.62,0.37,1.18,0.71,1.67
	c0.07,1.22,0.17,2.17,0.26,2.95c-1.64,1-2.57,2.94-2.2,4.92l1.61,8.76l-0.04,0.34c0,0.01,0,0.02,0,0.02l-0.01,0.07
	c-0.01,0.09-0.02,0.19-0.03,0.36l-0.02,0.28c-0.05,0.79-0.09,1.63-0.12,2.52c-0.06,1.6-0.11,3.32-0.13,5.28
	c-0.05,3.52-0.04,7.08-0.02,10.53l0,0.17c0.01,2.61,2.13,4.73,4.74,4.73c0.01,0,0.01,0,0.02,0c1.45-0.01,2.87-0.01,4.22-0.01
	c2.91,0,9.73,0,11.77,0.52c0.35,0.09,0.71,0.14,1.07,0.14l1.2,0.02l1.06,0.03l0.82,0.02c1.82,0.05,3.57,0.07,5.22,0.07
	c0.25,0,0.5,0,0.75,0c4.61-0.02,7.46-0.22,9.32-0.47c0.06,0.02,0.13,0.04,0.2,0.06c0.35,0.11,0.73,0.21,1.1,0.3
	c0.89,0.94,2.13,1.49,3.45,1.49c0.39,0,0.78-0.05,1.17-0.15c2.19-0.55,8-1.15,13.14-1.15c1.55,0,2.72,0.05,3.6,0.13
	c0.56,0.29,1.19,0.46,1.85,0.5c3.14,0.2,6.29,0.29,9.63,0.29c5.11,0,9.86-0.23,14.44-0.45c4.4-0.21,8.56-0.41,12.87-0.41
	c3.37,0,6.47,0.12,9.49,0.38c0.14,0.01,0.27,0.02,0.4,0.02c0.94,0,1.84-0.28,2.6-0.78c0.26-0.03,0.53-0.05,0.75-0.07
	c0.82-0.08,1.67-0.16,2.44-0.3c1.14-0.21,2.02-0.57,2.69-1.02c1.45-0.08,2.94-0.12,4.52-0.12c3.97,0,7.66,0.24,11.22,0.47
	c2.99,0.2,5.81,0.38,8.38,0.38c3.27,0,7.3-0.26,10.66-2.12c0.12,0,0.25,0,0.37,0c3.15,0,4.75,0.33,6.44,0.68
	c0.02,0.01,0.05,0.01,0.07,0.01c0.78,0.55,1.72,0.87,2.73,0.87c0.04,0,0.08,0,0.13,0c9.42-0.25,14.61-0.36,20.45-0.36
	c2.22,0,4.64,0.01,8.09,0.05c0.02,0,0.03,0,0.05,0c0.13,0,0.27-0.01,0.4-0.02c2.38-0.2,4.06-0.68,5.53-1.11
	c1.71-0.49,3.2-0.92,6.17-0.98c0.69,0.37,1.57,0.64,2.7,0.71c0.39,0.03,0.85,0.04,1.46,0.05c0.45,0.2,0.96,0.36,1.55,0.49
	c0.71,0.15,1.71,0.3,3.05,0.47c0.19,0.02,0.38,0.03,0.57,0.03c0.59,0,1.17-0.11,1.72-0.32c0.06-0.02,0.15-0.04,0.3-0.07
	c0.23,0.03,0.46,0.05,0.7,0.05c0.08,0,0.16,0,0.24-0.01c1.59-0.08,2.75-0.16,3.57-0.25c0.5-0.05,0.89-0.11,1.22-0.18
	c0.36-0.08,0.7-0.18,1-0.31c1.72,0.06,3.46,0.08,5.11,0.09c1.8,0.01,4.18,0.03,5.3,0.15c0.72,0.43,1.56,0.67,2.43,0.67
	c0.03,0,0.06,0,0.09,0c10.39-0.2,19.01-0.78,27.34-1.35c2.8-0.19,5.52-0.38,8.25-0.54c0.52,0.47,1.15,0.82,1.84,1.02
	c0.56,0.35,1.2,0.6,1.89,0.69c2.62,0.36,5.43,0.54,8.58,0.54c3.84,0,7.79-0.26,11.61-0.52c3.94-0.26,8.02-0.54,12.11-0.54
	c2.84,0,5.42,0.13,7.89,0.4c0.17,0.02,0.34,0.03,0.51,0.03c0.43,0,0.86-0.06,1.27-0.17l1.73-0.48c0.23,0.07,0.47,0.12,0.73,0.17
	c0.73,0.13,1.66,0.21,2.92,0.24c0.05,0,0.1,0,0.15,0c0.1,0,0.2-0.01,0.3-0.01c0.11,0,0.22,0.01,0.34,0.01c0.05,0,0.1,0,0.15,0
	c0.66,0,1.29-0.14,1.86-0.38c1.6,0.65,3.62,0.81,6.36,0.81c0.05,0,0.1,0,0.14,0c1.44,0.2,3.13,0.3,5.13,0.3
	c4.11,0,8.82-0.4,13.38-0.79c2.05-0.18,3.98-0.34,5.74-0.46c0.8-0.05,1.54-0.3,2.18-0.7c0,0,0,0,0.01,0
	c0.69,0.09,1.39,0.19,2.14,0.25c0.04,0.04,0.08,0.08,0.12,0.11c0.87,0.73,1.95,1.09,3.03,1.09c0.13,0,0.26-0.01,0.39-0.02
	c0.13,0.01,0.27,0.02,0.4,0.02c0.72,0,1.43-0.16,2.1-0.49c0.43,0.13,0.89,0.21,1.36,0.21c0.01,0,0.03,0,0.04,0l9.01-0.07l12.61-0.1
	c0.18,0,0.36-0.01,0.54-0.03c1.36-0.17,2.32-0.32,3.03-0.49c1.66-0.4,2.68-1.16,3.32-1.97c0.4-0.02,0.81-0.05,1.2-0.07
	c2.87-0.18,5.84-0.36,8.85-0.36c2.14,0,4.12,0.09,6.06,0.28c0.15,0.01,0.31,0.02,0.46,0.02c1.31,0,2.53-0.54,3.4-1.44
	c3.11-0.15,5.84-0.22,8.36-0.22c4.95,0,9.31,0.28,14.14,0.91c0.2,0.03,0.41,0.04,0.61,0.04c0.15,0,0.3-0.01,0.45-0.02
	c7.74-0.73,14.65-1.46,20.56-2.16h20.23c0.58,0.22,1.19,0.33,1.82,0.33c0.63,0,1.25-0.11,1.83-0.33h0.76c2.62,0,4.75-2.12,4.75-4.75
	v-1.29c2.19-1.57,2.5-3.58,2.49-4.65c-0.01-0.71-0.2-2.29-1.56-3.69c1.42-7.59,3-19.07,4.71-34.22c0.41-0.67,0.67-1.45,0.71-2.27
	C499.72,56.8,500.07,48.23,499.99,40.61z"/>
</svg>
