<?xml version="1.0" encoding="utf-8"?>
<!-- Generator: Adobe Illustrator 23.0.1, SVG Export Plug-In . SVG Version: 6.00 Build 0)  -->
<svg version="1.1" id="Layer_1" xmlns="http://www.w3.org/2000/svg" xmlns:xlink="http://www.w3.org/1999/xlink" x="0px" y="0px"
	 viewBox="0 0 800 400" style="enable-background:new 0 0 800 400;" xml:space="preserve">
<style type="text/css">
	.st0{fill:#2F5676;}
	.st1{fill:#D0775A;}
</style>
<path class="st1" d="M20,243.5c12.2-16.2,25.8-30.7,34.7-46.8c19.4-35.2,64-43.6,97.7-63.5c7.6-4.5,14.8-9.3,22.2-14
	c-1.8-2.1-3.5-4.2-5.3-6.3c-55,26.7-110,53.4-164.9,80.1c-1.5-1.9-2.9-3.7-4.4-5.6c21.7-13.8,43.4-27.5,65.1-41.3
	c-0.7-0.8-1.5-1.6-2.2-2.4c-13.7,4.5-27.4,9-41.1,13.5c-1.6-2.1-3.1-4.3-4.7-6.4c32.2-19.6,64.5-39.3,96.7-58.9
	c-0.3-0.8-0.5-1.6-0.8-2.3c-18.2,6.1-36.3,12.1-55.3,18.4C58.4,87.4,69,81.4,92.6,77.2c23.1-4.1,43-20.2,64.2-31.1
	c29.8-15.3,59.8-30.1,99.4-26c-12,5.8-24,11.5-34.3,16.4c40.8,12.8,74.3-5.7,109.6-19.1c12.7-4.8,26.8-7.1,40.3-10.6
	c1,1.7,2,3.4,3,5.1c-3.1,4.9-6.2,9.8-12.6,19.8c23.5-9.3,41.6-16.5,59.7-23.6c1.3,1.1,2.6,2.3,4,3.4c-6.3,5.7-12.5,11.4-18.8,17.1
	c0.6,1.5,1.2,3,1.8,4.5C443.2,22.1,477.6,11,512,0c1.6,3,3.2,6.1,4.9,9.1c-20.3,9.8-40.2,20.1-60.9,29.2
	c-21,9.3-42.8,17.6-64.2,26.3c0.7,1.7,1.5,3.4,2.2,5.1c32.7-8.5,65.4-17.1,98.1-25.6c0.6,0.8,1.1,1.5,1.7,2.3
	c-27.4,12.7-54.8,25.4-82.2,38.1c17.9,11.8,42.4,11.1,57.3-1.2c5.2-4.2,10.7-8.5,17-11.4c17.7-8.1,25.4-7.3,46.1,3.9
	c-10.5,11.3-20.9,22.4-34.4,36.9c57.5,0.4,110.7-14.2,165.7-23.5c-12.8,5.3-25.6,10.7-38.4,16c0.7,1.7,1.4,3.4,2.1,5
	c39.5-9.2,78.9-18.3,118.4-27.5c1.4,2.5,2.9,5,4.3,7.6c-23.6,10.9-47.1,21.7-70.7,32.6c0.8,2.1,1.5,4.1,2.3,6.2
	c38.5-8,76.9-16,115.4-24c1.1,1.8,2.2,3.7,3.3,5.5c-34.9,16.3-69.8,32.6-104.6,48.8c1.6,2.8,3.1,5.7,4.7,8.5
	c20.5-5.5,41-11,61.4-16.5c1.6,2.7,3.1,5.4,4.7,8c-49.7,18.4-97.8,38.6-133.6,72c1.9,2.6,3.7,5.2,5.6,7.8
	c26.8-12.1,53.9-23.9,80.4-36.4c10.1-4.7,18.6-11.5,28.7-16.2c3.7-1.7,9.8,0,14.9,0.1c-2.4,3.5-3.7,8.3-7.3,10.4
	c-23.4,13.7-47.4,26.8-70.1,41.8c26.7-8.6,53.4-17.2,80-25.8c1.1,2.1,2.3,4.2,3.4,6.3c-41.6,32.1-99.3,40.8-149,61
	c0.9,1.7,1.8,3.4,2.7,5c31.5-8.8,62.9-17.7,94.4-26.5c1,2,2,4.1,3,6.1c-1.7,2-2.9,5.2-5.2,5.9c-51.8,16.6-91.6,49.6-142.4,67.5
	c-43.7,15.4-87.5,30.8-131.4,45.9c-3.3,1.1-7.7,0.1-17.7,0.1c9.6-7.1,15.1-11.1,22.3-16.4c-31.2,3.8-61.5,37.5-93.2-0.6
	c13-5.1,24.4-9.6,35.8-14.1c-0.7-1.6-1.4-3.1-2.1-4.7c-27.2,7.4-54.9,13.7-81.3,22.5c-17.2,5.7-31.8,11.7-48-1.8
	c-3.4-2.8-15.5-1.2-22.1,1.2c-25.7,9.2-50.7,19.6-76,29.5c-1.7-2-3.4-4.1-5.2-6.1c12.2-7.6,24.4-15.2,36.9-22.9
	c-7.4-20.8,16.2-35.2,54.4-31.7c-16.2-14.1-32.7-15.8-53.4-7.1c-24.5,10.3-50.1,19-75.7,27.3c-7.4,2.4-16.5,1.1-25.7-2
	c33-14.2,66.1-28.4,99.1-42.6c-0.8-2.6-1.7-5.2-2.5-7.8c-50.2-1.8-100.1,2.5-149.7,12.6c-0.3-1.7-0.6-3.3-0.9-5
	c8.6-3.2,17.2-6.4,23.7-8.8c-7.9-14.5-15.3-28.2-24-44.1c3.1-1.8,8.6-5.1,18.4-11C41.6,248.4,33.1,246.5,20,243.5z"/>
</svg>
