<?xml version="1.0" encoding="utf-8"?>
<!-- Generator: Adobe Illustrator 23.0.1, SVG Export Plug-In . SVG Version: 6.00 Build 0)  -->
<svg version="1.1" id="Layer_1" xmlns="http://www.w3.org/2000/svg" xmlns:xlink="http://www.w3.org/1999/xlink" x="0px" y="0px"
	 viewBox="0 0 500 125.7" style="enable-background:new 0 0 500 125.7;" xml:space="preserve">
<style type="text/css">
	.st0{fill:#316C9B;}
</style>
<path class="st0" d="M500,40.6c0-3.7-0.2-7-0.4-10.3c-0.1-1.7-0.3-3.4-0.4-5l0-0.3l0-0.1v0l-0.1-1c0,0,0,0,0,0l-0.1-1.1l-0.1-0.8
	c-0.1-0.9-0.1-1.7-0.2-2.5c0.4-1.2,0.6-2.6,0.8-4.5c0.2-1.9,0.2-4.2,0.2-7.2c0-2.6-2.1-4.7-4.7-4.7h0c-3,0-6.2,0.1-9.3,0.2
	c-1,0-2.1,0-3.1,0.1l-0.7,0l-2.1,0l-0.7,0l-0.6,0h-1.2c-0.1,0-0.3,0-0.4,0c-0.6-0.2-1.2-0.3-1.8-0.3c-0.2,0-0.5,0-0.7,0
	c-2.1,0.3-4.5,0.5-7.2,0.5c-3.2,0-6.5-0.2-9.7-0.4c-3.3-0.2-6.7-0.4-10.1-0.4c-0.4,0-0.8,0-1.1,0c-0.6-0.3-1.2-0.4-1.9-0.4
	c0,0,0,0-0.1,0c0,0,0,0,0,0c0,0,0,0,0,0c-0.1,0-0.3,0-0.4,0c-0.1,0-0.1,0-0.2,0c0,0,0,0-0.1,0c0,0,0,0,0,0c0,0,0,0,0,0
	c-0.2,0-0.4,0-0.6,0l-1.2,0c-3.5,0.1-7.4,0.3-10.6,0.3c-2.8,0-4.1-0.1-4.7-0.2c-0.7-0.4-1.6-0.7-2.5-0.7c0,0-0.1,0-0.1,0
	c-5,0.1-10.5,0.1-16.3,0.1C392.6,2,377,2.1,367.2,3.3c-0.3,0-0.5-0.1-0.8-0.1c-0.3,0-0.6,0-1,0.1C362.8,3.9,361,4,359.2,4
	c-0.6,0-1.3,0-1.9,0c-0.8,0-1.5,0-2.4,0c-1.1,0-2.2,0-3.3,0.1c-0.3-0.1-0.6-0.2-1-0.2c-0.2,0-0.4,0-0.6,0c-0.1,0-0.1,0-0.2,0
	c-0.1,0-0.2,0-0.2,0c0,0,0,0,0,0c-0.1,0-0.2,0-0.3,0c-0.1,0-0.1,0-0.2,0c-0.1,0-0.2,0-0.2,0c-0.4,0-0.9,0.1-1.4,0.2
	c-3.2,0.5-7.8,0.6-11.1,0.6c-1.9,0-3.8,0-5.7-0.1c-1.8,0-3.5,0-5,0c-1.3,0-2.5,0-3.5,0.1c-0.8-0.5-1.6-0.7-2.5-0.7c0,0,0,0-0.1,0
	L304.2,4c-0.7,0-1.5,0.2-2.1,0.5c-2.6-0.3-5.7-0.7-9.1-0.7c-2.1,0-4,0.1-5.9,0.4c-0.2,0-0.4,0-0.6,0c-5,0-9.9,1.1-14.6,2.1
	c-4.5,1-8.9,1.9-13.1,1.9h0c-0.5-0.8-1.2-1.7-2.6-2.4c-0.7-0.3-1.4-0.5-2.2-0.5c-0.1,0-0.3,0-0.4,0c-0.9,0.1-1.8,0.1-2.7,0.1
	c-2,0-3.9-0.2-6-0.3c-2.4-0.2-4.8-0.4-7.7-0.4c-0.9,0-1.7,0-2.6,0.1c-0.8-0.5-1.7-0.8-2.7-0.8c-0.2,0-0.5,0-0.7,0
	c-2.4,0.4-5,0.5-7.8,0.5c-3,0-5.9-0.2-8.7-0.4c-2.7-0.2-5.2-0.3-7.6-0.3c-2.6,0-4.7,0.2-6.7,0.6c-1,0.1-1.9,0.1-2.7,0.1
	c-2.8,0-4.1-0.3-5.5-0.7c-1.6-0.4-3.3-0.9-6.3-0.9c-1.7,0-3.6,0.2-6,0.5l-4.1-1.1c-0.3-0.1-0.7-0.1-1-0.2c-0.3,0-0.7,0-1,0
	c-2.6,0-3.9,0.4-5.3,0.8c-0.6,0.2-0.9,0.3-1.7,0.3c-0.2,0-0.4,0-0.7,0c-0.9-0.4-2-0.6-3.1-0.7c-0.7-0.5-1.5-0.8-2.3-0.9
	c-2.5-0.2-5.2-0.4-8.2-0.4c-3.8,0-7.6,0.2-11.7,0.4c-4.2,0.2-8.5,0.4-13,0.4c-4.9,0-9.4-0.3-13.8-0.8c-0.2,0-0.4,0-0.6,0
	c-0.6,0-1.2,0.1-1.8,0.4c-1.4,0.6-4.9,0.7-7.6,0.8c-2.7,0.1-5.1,0.2-7,0.6c-0.1,0-0.3,0-0.4,0c-0.7-1.1-1.9-1.9-3.2-2.2
	C90.9,0.2,88.2,0,85.3,0c-3.7,0-7.1,0.3-10.5,0.7c-3.4,0.3-6.6,0.7-10,0.7c-0.5,0-0.9,0-1.4,0c0,0-0.1,0-0.1,0c-0.5,0-1,0.1-1.5,0.3
	c-0.5-0.2-1-0.3-1.5-0.3L45.9,0.8c0,0-0.1,0-0.2,0c-0.7,0-1.5,0.2-2.1,0.5c-0.3,0-0.6-0.1-0.9-0.1c-2.1-0.3-4.2-0.7-6.8-0.7
	c-2,0-4.1,0.2-6.5,0.6c-0.1,0-0.1,0-0.2,0c-1.3,0.3-2.2,0.8-2.8,1.3c-0.2,0-0.4,0-0.8,0l-0.4,0l-1.5-0.1l-3-0.1l-8.4-0.3l-5-0.2
	c-0.1,0-0.1,0-0.2,0c-2.5,0-4.6,2-4.7,4.6C2.2,12.5,2,18.8,1.8,24.9l-0.1,2.7l-0.1,2.8c0,0,0,0,0,0c-0.1,1.8-0.1,3.6-0.2,5.3
	c0,1.2,0.4,2.4,1.2,3.3c-0.6,0.9-0.9,2-0.8,3.2c0.3,3.1,0.3,4.6,0.3,5.3c0,0.4,0,0.4-0.2,0.7c-0.9,1.9-1.4,3.7-1.3,7.5
	c-0.7,1.4-0.7,3.1,0.2,4.6l0.7,1.1c0,0,0,0,0,0l0.9,1.4c0.6,3.7,0.3,4.7,0,5.8c-0.7,2.7-1,5.1,0.5,12.3c0.1,0.6,0.4,1.2,0.7,1.7
	c0.1,1.2,0.2,2.2,0.3,2.9c-1.6,1-2.6,2.9-2.2,4.9l1.6,8.8l0,0.3c0,0,0,0,0,0l0,0.1c0,0.1,0,0.2,0,0.4l0,0.3c0,0.8-0.1,1.6-0.1,2.5
	c-0.1,1.6-0.1,3.3-0.1,5.3c0,3.5,0,7.1,0,10.5v0.2c0,2.6,2.1,4.7,4.7,4.7c0,0,0,0,0,0c1.5,0,2.9,0,4.2,0c2.9,0,9.7,0,11.8,0.5
	c0.4,0.1,0.7,0.1,1.1,0.1l1.2,0l1.1,0l0.8,0c1.8,0.1,3.6,0.1,5.2,0.1c0.3,0,0.5,0,0.8,0c4.6,0,7.5-0.2,9.3-0.5c0.1,0,0.1,0,0.2,0.1
	c0.3,0.1,0.7,0.2,1.1,0.3c0.9,0.9,2.1,1.5,3.5,1.5c0.4,0,0.8-0.1,1.2-0.2c2.2-0.6,8-1.2,13.1-1.2c1.5,0,2.7,0.1,3.6,0.1
	c0.6,0.3,1.2,0.5,1.8,0.5c3.1,0.2,6.3,0.3,9.6,0.3c5.1,0,9.9-0.2,14.4-0.4c4.4-0.2,8.6-0.4,12.9-0.4c3.4,0,6.5,0.1,9.5,0.4
	c0.1,0,0.3,0,0.4,0c0.9,0,1.8-0.3,2.6-0.8c0.3,0,0.5-0.1,0.8-0.1c0.8-0.1,1.7-0.2,2.4-0.3c1.1-0.2,2-0.6,2.7-1
	c1.4-0.1,2.9-0.1,4.5-0.1c4,0,7.7,0.2,11.2,0.5c3,0.2,5.8,0.4,8.4,0.4c3.3,0,7.3-0.3,10.7-2.1c0.1,0,0.3,0,0.4,0
	c3.1,0,4.8,0.3,6.4,0.7c0,0,0.1,0,0.1,0c0.8,0.6,1.7,0.9,2.7,0.9c0,0,0.1,0,0.1,0c9.4-0.3,14.6-0.4,20.4-0.4c2.2,0,4.6,0,8.1,0.1
	c0,0,0,0,0.1,0c0.1,0,0.3,0,0.4,0c2.4-0.2,4.1-0.7,5.5-1.1c1.7-0.5,3.2-0.9,6.2-1c0.7,0.4,1.6,0.6,2.7,0.7c0.4,0,0.9,0,1.5,0.1
	c0.4,0.2,1,0.4,1.6,0.5c0.7,0.2,1.7,0.3,3.1,0.5c0.2,0,0.4,0,0.6,0c0.6,0,1.2-0.1,1.7-0.3c0.1,0,0.1,0,0.3-0.1
	c0.2,0,0.5,0.1,0.7,0.1c0.1,0,0.2,0,0.2,0c1.6-0.1,2.8-0.2,3.6-0.3c0.5-0.1,0.9-0.1,1.2-0.2c0.4-0.1,0.7-0.2,1-0.3
	c1.7,0.1,3.5,0.1,5.1,0.1c1.8,0,4.2,0,5.3,0.2c0.7,0.4,1.6,0.7,2.4,0.7c0,0,0.1,0,0.1,0c10.4-0.2,19-0.8,27.3-1.3
	c2.8-0.2,5.5-0.4,8.3-0.5c0.5,0.5,1.1,0.8,1.8,1c0.6,0.3,1.2,0.6,1.9,0.7c2.6,0.4,5.4,0.5,8.6,0.5c3.8,0,7.8-0.3,11.6-0.5
	c3.9-0.3,8-0.5,12.1-0.5c2.8,0,5.4,0.1,7.9,0.4c0.2,0,0.3,0,0.5,0c0.4,0,0.9-0.1,1.3-0.2l1.7-0.5c0.2,0.1,0.5,0.1,0.7,0.2
	c0.7,0.1,1.7,0.2,2.9,0.2c0,0,0.1,0,0.1,0c0.1,0,0.2,0,0.3,0c0.1,0,0.2,0,0.3,0c0,0,0.1,0,0.1,0c0.7,0,1.3-0.1,1.9-0.4
	c1.6,0.7,3.6,0.8,6.4,0.8c0,0,0.1,0,0.1,0c1.4,0.2,3.1,0.3,5.1,0.3c4.1,0,8.8-0.4,13.4-0.8c2-0.2,4-0.3,5.7-0.5
	c0.8-0.1,1.5-0.3,2.2-0.7c0,0,0,0,0,0c0.7,0.1,1.4,0.2,2.1,0.3c0,0,0.1,0.1,0.1,0.1c0.9,0.7,2,1.1,3,1.1c0.1,0,0.3,0,0.4,0
	c0.1,0,0.3,0,0.4,0c0.7,0,1.4-0.2,2.1-0.5c0.4,0.1,0.9,0.2,1.4,0.2c0,0,0,0,0,0l9-0.1l12.6-0.1c0.2,0,0.4,0,0.5,0
	c1.4-0.2,2.3-0.3,3-0.5c1.7-0.4,2.7-1.2,3.3-2c0.4,0,0.8-0.1,1.2-0.1c2.9-0.2,5.8-0.4,8.9-0.4c2.1,0,4.1,0.1,6.1,0.3
	c0.1,0,0.3,0,0.5,0c1.3,0,2.5-0.5,3.4-1.4c3.1-0.2,5.8-0.2,8.4-0.2c5,0,9.3,0.3,14.1,0.9c0.2,0,0.4,0,0.6,0c0.1,0,0.3,0,0.5,0
	c7.7-0.7,14.6-1.5,20.6-2.2h20.2c0.6,0.2,1.2,0.3,1.8,0.3s1.3-0.1,1.8-0.3h0.8c2.6,0,4.8-2.1,4.8-4.8v-1.3c2.2-1.6,2.5-3.6,2.5-4.7
	c0-0.7-0.2-2.3-1.6-3.7c1.4-7.6,3-19.1,4.7-34.2c0.4-0.7,0.7-1.4,0.7-2.3C499.7,56.8,500.1,48.2,500,40.6z"/>
</svg>
